<svg xmlns="http://www.w3.org/2000/svg" viewBox="0 0 340 96" fill="none" role="img" aria-label="Pixel Lab Robotics">
  <g stroke="#c2158a" stroke-width="3.2" stroke-linecap="round" stroke-linejoin="round">
    <path d="M40 12 C24 12 12 24 12 40 C12 52 19 62 30 67 C33 74 47 74 50 67 C63 63 70 52 70 40 C70 24 56 12 40 12 Z" />
    <path d="M41 41 L41 20" />
    <path d="M41 41 L22 30" />
    <path d="M41 41 L20 46" />
    <path d="M41 41 L30 62" />
    <path d="M41 41 L58 30" />
    <path d="M41 41 L60 48" />
  </g>
  <g fill="#c2158a">
    <circle cx="41" cy="20" r="2.6" />
    <circle cx="22" cy="30" r="2.6" />
    <circle cx="20" cy="46" r="2.6" />
    <circle cx="30" cy="62" r="2.6" />
    <circle cx="58" cy="30" r="2.6" />
    <circle cx="60" cy="48" r="2.6" />
  </g>
  <g stroke="#c2158a" stroke-width="3.2" stroke-linecap="round" stroke-linejoin="round">
    <rect x="33" y="33" width="16" height="16" rx="3" fill="#ffffff" />
    <path d="M38 33 V28 M44 33 V28 M38 49 V54 M44 49 V54 M33 38 H28 M33 44 H28 M49 38 H54 M49 44 H54" />
  </g>
  <text x="92" y="46" font-family="Inter, 'Segoe UI', sans-serif" font-size="34" font-weight="700" letter-spacing="2" fill="#c2158a">PIXEL LAB</text>
  <text x="93" y="72" font-family="Inter, 'Segoe UI', sans-serif" font-size="16" font-weight="500" letter-spacing="8" fill="#c2158a">ROBOTICS</text>
</svg>
